<?xml version="1.0" encoding="UTF-8" standalone="no"?>
<!-- Created with Inkscape (http://www.inkscape.org/) -->

<svg
   width="236.27341"
   height="84.687866"
   id="svg3030"
   version="1.1"
   inkscape:version="1.3.2 (091e20e, 2023-11-25)"
   sodipodi:docname="logo.svg"
   inkscape:export-filename="logo.png"
   inkscape:export-xdpi="76.792389"
   inkscape:export-ydpi="76.792389"
   xmlns:inkscape="http://www.inkscape.org/namespaces/inkscape"
   xmlns:sodipodi="http://sodipodi.sourceforge.net/DTD/sodipodi-0.dtd"
   xmlns:xlink="http://www.w3.org/1999/xlink"
   xmlns="http://www.w3.org/2000/svg"
   xmlns:svg="http://www.w3.org/2000/svg"
   xmlns:rdf="http://www.w3.org/1999/02/22-rdf-syntax-ns#"
   xmlns:cc="http://creativecommons.org/ns#"
   xmlns:dc="http://purl.org/dc/elements/1.1/">
  <defs
     id="defs3032">
    <linearGradient
       id="linearGradient23"
       inkscape:collect="always">
      <stop
         style="stop-color:#b7c9d5;stop-opacity:1;"
         offset="0"
         id="stop22" />
      <stop
         style="stop-color:#2e3a42;stop-opacity:0;"
         offset="1"
         id="stop23" />
    </linearGradient>
    <linearGradient
       id="linearGradient18">
      <stop
         style="stop-color:#c4dae3;stop-opacity:1;"
         offset="0"
         id="stop19" />
      <stop
         style="stop-color:#478cbf;stop-opacity:1;"
         offset="1"
         id="stop17" />
    </linearGradient>
    <linearGradient
       id="linearGradient95"
       inkscape:collect="always">
      <stop
         style="stop-color:#b7c9d5;stop-opacity:1;"
         offset="0"
         id="stop95" />
      <stop
         style="stop-color:#2e3a42;stop-opacity:0;"
         offset="1"
         id="stop96" />
    </linearGradient>
    <radialGradient
       inkscape:collect="always"
       xlink:href="#linearGradient18"
       id="radialGradient14"
       gradientUnits="userSpaceOnUse"
       gradientTransform="matrix(1,0,0,0.98167429,0,9.9848166)"
       cx="423.44223"
       cy="474.21603"
       fx="423.44223"
       fy="474.21603"
       r="499.14496" />
    <linearGradient
       inkscape:collect="always"
       xlink:href="#linearGradient23"
       id="linearGradient21"
       gradientUnits="userSpaceOnUse"
       x1="272.70276"
       y1="626.92566"
       x2="272.45721"
       y2="516.58807" />
    <linearGradient
       inkscape:collect="always"
       xlink:href="#linearGradient95"
       id="linearGradient22"
       gradientUnits="userSpaceOnUse"
       x1="272.70276"
       y1="626.92566"
       x2="272.45721"
       y2="516.58807" />
    <radialGradient
       inkscape:collect="always"
       xlink:href="#linearGradient18"
       id="radialGradient9"
       gradientUnits="userSpaceOnUse"
       gradientTransform="matrix(1,0,0,0.98167429,0,9.9848166)"
       cx="423.44223"
       cy="474.21603"
       fx="423.44223"
       fy="474.21603"
       r="499.14496" />
    <linearGradient
       inkscape:collect="always"
       xlink:href="#linearGradient23"
       id="linearGradient9"
       gradientUnits="userSpaceOnUse"
       x1="272.70276"
       y1="626.92566"
       x2="272.45721"
       y2="516.58807" />
    <linearGradient
       inkscape:collect="always"
       xlink:href="#linearGradient95"
       id="linearGradient10"
       gradientUnits="userSpaceOnUse"
       x1="272.70276"
       y1="626.92566"
       x2="272.45721"
       y2="516.58807" />
  </defs>
  <sodipodi:namedview
     id="base"
     pagecolor="#ffffff"
     bordercolor="#666666"
     borderopacity="1.0"
     inkscape:pageopacity="0.0"
     inkscape:pageshadow="2"
     inkscape:zoom="1.1696263"
     inkscape:cx="126.10866"
     inkscape:cy="99.176976"
     inkscape:document-units="px"
     inkscape:current-layer="layer1"
     showgrid="true"
     inkscape:window-width="1760"
     inkscape:window-height="1127"
     inkscape:window-x="446"
     inkscape:window-y="77"
     inkscape:window-maximized="0"
     inkscape:showpageshadow="2"
     inkscape:pagecheckerboard="true"
     inkscape:deskcolor="#d1d1d1">
    <inkscape:grid
       id="grid1"
       units="px"
       originx="-393.86331"
       originy="-469.65607"
       spacingx="16"
       spacingy="16"
       empcolor="#0099e5"
       empopacity="0.30196078"
       color="#0099e5"
       opacity="0.14901961"
       empspacing="4"
       dotted="false"
       gridanglex="30"
       gridanglez="30"
       visible="true" />
  </sodipodi:namedview>
  <metadata
     id="metadata3035">
    <rdf:RDF>
      <cc:Work
         rdf:about="">
        <dc:format>image/svg+xml</dc:format>
        <dc:type
           rdf:resource="http://purl.org/dc/dcmitype/StillImage" />
      </cc:Work>
    </rdf:RDF>
  </metadata>
  <g
     inkscape:label="Layer 1"
     inkscape:groupmode="layer"
     id="layer1"
     transform="translate(-393.86331,-498.01825)">
    <g
       id="g8"
       transform="matrix(0.98253991,0,0,1.04192,-0.05469654,-32.85931)"
       inkscape:label="Source"
       style="display:none;stroke-width:63.8588;stroke-dasharray:none">
      <path
         id="path1"
         style="display:inline;fill:url(#radialGradient14);fill-rule:nonzero;stroke:#2e3a42;stroke-width:70.291;stroke-linecap:round;stroke-linejoin:round;stroke-dasharray:none;stroke-opacity:1"
         d="m 417.61914,90 c -42.39456,9.987101 -84.32981,23.90695 -123.64062,44.88281 0.889,36.81087 3.13914,72.09102 7.69531,107.92969 -15.26593,10.37009 -31.32405,19.26658 -45.58985,31.4043 -14.48804,11.82838 -29.28166,23.14006 -42.39453,36.95703 -26.22573,-18.38334 -53.9658,-35.66046 -82.53906,-50.90625 C 100.34072,295.42866 71.530923,333.37257 48,375.83984 c 17.710701,30.35902 36.185482,58.83436 56.14648,85.84961 h 0.55469 l 1.33203,98.35157 c -0.84462,10.68821 -1.40234,21.45564 -1.40234,32.35742 0,224.58239 182.71252,407.30664 407.30664,407.30664 224.61577,0 407.37305,-182.72425 407.37305,-407.30664 0,-7.26122 -0.20681,-14.47372 -0.58399,-21.64258 l 0.57227,-109.06641 h 0.55469 C 939.81452,434.6742 958.2893,406.19886 976,375.83984 952.46908,333.37257 923.65928,295.42866 892.84961,260.26758 c -28.57327,15.24579 -56.32723,32.52291 -82.53906,50.90625 -13.11287,-13.81697 -27.8926,-25.12865 -42.39453,-36.95703 -14.2658,-12.13772 -30.32218,-21.03421 -45.57422,-31.4043 4.54227,-35.83867 6.79241,-71.11882 7.69531,-107.92969 C 690.71241,113.90695 648.77564,99.987101 606.36719,90 c -16.93282,30.16753 -32.42051,62.8548 -45.89453,94.80469 -16.00214,-2.82821 -32.07468,-3.88859 -48.16016,-4.08008 v -0.0312 c -0.11113,0 -0.20745,0.0312 -0.30469,0.0312 -0.11112,0 -0.2094,-0.0312 -0.30664,-0.0312 v 0.0312 c -16.11326,0.19149 -32.17169,1.25187 -48.17383,4.08008 C 450.05332,152.8548 434.57974,120.16753 417.61914,90 Z"
         inkscape:label="head"
         transform="matrix(0.93554191,0,0,0.88222437,42.156636,69.47642)" />
      <path
         id="path2"
         style="display:inline;fill:#2e3a42;fill-opacity:1;fill-rule:nonzero;stroke:none;stroke-width:71.8141;stroke-dasharray:none;stroke-opacity:1"
         d="m 719.15204,518.15961 c -15.20951,0 -27.5892,12.35331 -27.5892,27.58956 v 91.07962 c 0,100.2772 -81.61634,181.94685 -181.99179,181.94685 -100.30875,0 -181.9379,-81.66965 -181.9379,-181.94685 v -91.07962 c 0,-15.23625 -12.38505,-27.58956 -27.58301,-27.58956 -15.20954,0 -27.58278,12.35331 -27.58278,27.58956 v 91.07962 c 0,130.69139 106.38066,237.1052 237.10369,237.1052 130.73667,0 237.13037,-106.41381 237.13037,-237.1052 v -91.07962 c 0,-15.23625 -12.35144,-27.58956 -27.54938,-27.58956"
         inkscape:label="mouth"
         transform="matrix(0.93554191,0,0,0.88222437,42.156636,69.47642)" />
      <path
         style="display:inline;fill:url(#linearGradient21);fill-opacity:1;fill-rule:nonzero;stroke:none;stroke-width:71.8141;stroke-dasharray:none;stroke-opacity:1"
         d="m 719.15243,518.16055 c -15.2095,0 -27.59044,12.35208 -27.59044,27.58831 v 69.61247 h 55.13838 v -69.61247 c 0,-15.23623 -12.35002,-27.58831 -27.54794,-27.58831 z"
         transform="matrix(0.93554191,0,0,0.88222437,42.156636,69.47642)"
         id="path5"
         inkscape:label="right_eye_lights" />
      <path
         style="display:inline;fill:url(#linearGradient22);fill-opacity:1;fill-rule:nonzero;stroke:none;stroke-width:71.8141;stroke-dasharray:none;stroke-opacity:1"
         d="m 300.04979,518.16055 c -15.20952,0 -27.58193,12.35208 -27.58193,27.58831 v 69.61247 h 55.16599 v -69.61247 c 0,-15.23623 -12.38611,-27.58831 -27.58406,-27.58831 z"
         id="path7"
         transform="matrix(0.93554191,0,0,0.88222437,42.156636,69.47642)"
         inkscape:label="left_eye_lights" />
    </g>
    <g
       inkscape:groupmode="layer"
       id="layer2"
       inkscape:label="ouya_icon (launcher banner)"
       style="display:none">
      <rect
         style="fill:#000000;stroke-width:49.464;stroke-linecap:round;stroke-linejoin:round"
         id="rect9"
         width="732"
         height="412"
         x="146"
         y="334.36218"
         ry="0"
         inkscape:label="background" />
      <use
         x="0"
         y="0"
         xlink:href="#g8"
         id="use9"
         transform="matrix(0.30958447,0,0,0.30958447,186.91346,364.57017)" />
      <text
         xml:space="preserve"
         style="font-style:normal;font-variant:normal;font-weight:normal;font-stretch:normal;font-size:90.791px;line-height:0.9;font-family:Poppins;-inkscape-font-specification:Poppins;text-align:center;letter-spacing:-2.72372px;word-spacing:-0.141861px;text-anchor:middle;display:inline;fill:none;fill-opacity:0.433628;stroke:#000000;stroke-width:140.34;stroke-linecap:round;stroke-linejoin:round"
         x="452.69022"
         y="531.64801"
         id="text1"><tspan
           sodipodi:role="line"
           id="tspan1"
           style="font-weight:bold;font-size:90.791px;line-height:0.9;text-align:start;letter-spacing:-2.72372px;word-spacing:-0.141861px;text-anchor:start;fill:#414042;fill-opacity:1;stroke:none;stroke-width:140.34"
           x="452.69022"
           y="531.64801"
           dy="-0.2149217"
           dx="-0.01729255"
           rotate="0 0 0 0 0 0">Godot</tspan><tspan
           sodipodi:role="line"
           style="font-size:90.791px;line-height:0.9;text-align:start;letter-spacing:-2.72372px;word-spacing:-0.141861px;text-anchor:start;fill:#414042;fill-opacity:1;stroke:none;stroke-width:140.34"
           x="452.69022"
           y="613.35992"
           id="tspan2"
           rotate="0 0 0 0 0 0 0 0 0">for OUYA</tspan></text>
    </g>
    <g
       inkscape:groupmode="layer"
       id="g12"
       inkscape:label="logo"
       style="display:inline">
      <rect
         style="fill:none;fill-opacity:1;stroke-width:12.741;stroke-linecap:round;stroke-linejoin:round"
         id="rect10"
         width="236.27339"
         height="84.687874"
         x="393.86331"
         y="498.01825"
         ry="0"
         inkscape:label="background" />
      <g
         id="use11"
         transform="matrix(0.07604945,0,0,0.08064552,399.93242,495.99433)"
         inkscape:label="Source"
         style="display:inline;stroke-width:63.8588;stroke-dasharray:none">
        <path
           id="path3"
           style="display:inline;fill:url(#radialGradient9);fill-rule:nonzero;stroke:#2e3a42;stroke-width:70.291;stroke-linecap:round;stroke-linejoin:round;stroke-dasharray:none;stroke-opacity:1"
           d="m 417.61914,90 c -42.39456,9.987101 -84.32981,23.90695 -123.64062,44.88281 0.889,36.81087 3.13914,72.09102 7.69531,107.92969 -15.26593,10.37009 -31.32405,19.26658 -45.58985,31.4043 -14.48804,11.82838 -29.28166,23.14006 -42.39453,36.95703 -26.22573,-18.38334 -53.9658,-35.66046 -82.53906,-50.90625 C 100.34072,295.42866 71.530923,333.37257 48,375.83984 c 17.710701,30.35902 36.185482,58.83436 56.14648,85.84961 h 0.55469 l 1.33203,98.35157 c -0.84462,10.68821 -1.40234,21.45564 -1.40234,32.35742 0,224.58239 182.71252,407.30664 407.30664,407.30664 224.61577,0 407.37305,-182.72425 407.37305,-407.30664 0,-7.26122 -0.20681,-14.47372 -0.58399,-21.64258 l 0.57227,-109.06641 h 0.55469 C 939.81452,434.6742 958.2893,406.19886 976,375.83984 952.46908,333.37257 923.65928,295.42866 892.84961,260.26758 c -28.57327,15.24579 -56.32723,32.52291 -82.53906,50.90625 -13.11287,-13.81697 -27.8926,-25.12865 -42.39453,-36.95703 -14.2658,-12.13772 -30.32218,-21.03421 -45.57422,-31.4043 4.54227,-35.83867 6.79241,-71.11882 7.69531,-107.92969 C 690.71241,113.90695 648.77564,99.987101 606.36719,90 c -16.93282,30.16753 -32.42051,62.8548 -45.89453,94.80469 -16.00214,-2.82821 -32.07468,-3.88859 -48.16016,-4.08008 v -0.0312 c -0.11113,0 -0.20745,0.0312 -0.30469,0.0312 -0.11112,0 -0.2094,-0.0312 -0.30664,-0.0312 v 0.0312 c -16.11326,0.19149 -32.17169,1.25187 -48.17383,4.08008 C 450.05332,152.8548 434.57974,120.16753 417.61914,90 Z"
           inkscape:label="head"
           transform="matrix(0.93554191,0,0,0.88222437,42.156636,69.47642)" />
        <path
           id="path4"
           style="display:inline;fill:#2e3a42;fill-opacity:1;fill-rule:nonzero;stroke:none;stroke-width:71.8141;stroke-dasharray:none;stroke-opacity:1"
           d="m 719.15204,518.15961 c -15.20951,0 -27.5892,12.35331 -27.5892,27.58956 v 91.07962 c 0,100.2772 -81.61634,181.94685 -181.99179,181.94685 -100.30875,0 -181.9379,-81.66965 -181.9379,-181.94685 v -91.07962 c 0,-15.23625 -12.38505,-27.58956 -27.58301,-27.58956 -15.20954,0 -27.58278,12.35331 -27.58278,27.58956 v 91.07962 c 0,130.69139 106.38066,237.1052 237.10369,237.1052 130.73667,0 237.13037,-106.41381 237.13037,-237.1052 v -91.07962 c 0,-15.23625 -12.35144,-27.58956 -27.54938,-27.58956"
           inkscape:label="mouth"
           transform="matrix(0.93554191,0,0,0.88222437,42.156636,69.47642)" />
        <path
           style="display:inline;fill:url(#linearGradient9);fill-opacity:1;fill-rule:nonzero;stroke:none;stroke-width:71.8141;stroke-dasharray:none;stroke-opacity:1"
           d="m 719.15243,518.16055 c -15.2095,0 -27.59044,12.35208 -27.59044,27.58831 v 69.61247 h 55.13838 v -69.61247 c 0,-15.23623 -12.35002,-27.58831 -27.54794,-27.58831 z"
           transform="matrix(0.93554191,0,0,0.88222437,42.156636,69.47642)"
           id="path6"
           inkscape:label="right_eye_lights" />
        <path
           style="display:inline;fill:url(#linearGradient10);fill-opacity:1;fill-rule:nonzero;stroke:none;stroke-width:71.8141;stroke-dasharray:none;stroke-opacity:1"
           d="m 300.04979,518.16055 c -15.20952,0 -27.58193,12.35208 -27.58193,27.58831 v 69.61247 h 55.16599 v -69.61247 c 0,-15.23623 -12.38611,-27.58831 -27.58406,-27.58831 z"
           id="path8"
           transform="matrix(0.93554191,0,0,0.88222437,42.156636,69.47642)"
           inkscape:label="left_eye_lights" />
      </g>
      <text
         xml:space="preserve"
         style="font-style:normal;font-variant:normal;font-weight:normal;font-stretch:normal;font-size:32.0004px;line-height:0.9;font-family:Poppins;-inkscape-font-specification:Poppins;text-align:center;letter-spacing:-0.960006px;word-spacing:-0.0500005px;text-anchor:middle;display:inline;fill:none;fill-opacity:0.433628;stroke:#000000;stroke-width:49.4644;stroke-linecap:round;stroke-linejoin:round"
         x="485.53012"
         y="537.69604"
         id="text12"><tspan
           sodipodi:role="line"
           id="tspan11"
           style="font-weight:bold;font-size:32.0004px;line-height:0.9;text-align:start;letter-spacing:-0.960006px;word-spacing:-0.0500005px;text-anchor:start;fill:#414042;fill-opacity:1;stroke:none;stroke-width:49.4644"
           x="485.53012"
           y="537.69604"
           dy="-0.075751565"
           dx="-0.0060949535"
           rotate="0 0 0 0 0 0">Godot</tspan><tspan
           sodipodi:role="line"
           style="font-size:32.0004px;line-height:0.9;text-align:start;letter-spacing:-0.960006px;word-spacing:-0.0500005px;text-anchor:start;fill:#414042;fill-opacity:1;stroke:none;stroke-width:49.4644"
           x="485.53012"
           y="566.4964"
           id="tspan12"
           rotate="0 0 0 0 0 0 0 0 0">for OUYA</tspan></text>
    </g>
    <g
       inkscape:groupmode="layer"
       id="layer3"
       inkscape:label="editor-icons-source"
       transform="matrix(1.1159117,0,0,1.1159117,-59.346768,-72.017069)"
       style="display:none">
      <use
         x="0"
         y="0"
         xlink:href="#g8"
         id="use10"
         inkscape:label="use10"
         transform="translate(0,8.4081648)" />
      <g
         id="g10"
         transform="translate(-7.6414901,-2.3512185)">
        <path
           style="opacity:1;fill:#000000;fill-opacity:1;stroke:none;stroke-width:324.16;stroke-linecap:round;stroke-linejoin:round;stroke-miterlimit:4;stroke-dasharray:none;stroke-dashoffset:0;stroke-opacity:0.441624"
           d="M 303.53519,384.15214 A 162.07971,162.07971 0 0 0 141.45548,546.23185 162.07971,162.07971 0 0 0 303.53519,708.31157 162.07971,162.07971 0 0 0 465.6149,546.23185 162.07971,162.07971 0 0 0 303.53519,384.15214 Z m 0,54.02657 A 108.05408,108.05408 0 0 1 411.58833,546.23185 108.05408,108.05408 0 0 1 303.53519,654.28499 108.05408,108.05408 0 0 1 195.48204,546.23185 108.05408,108.05408 0 0 1 303.53519,438.17871 Z"
           id="path4151"
           inkscape:connector-curvature="0"
           inkscape:label="eye_left" />
        <path
           inkscape:connector-curvature="0"
           id="path4156"
           d="M 735.74775,384.15214 A 162.07971,162.07971 0 0 0 573.66805,546.23185 162.07971,162.07971 0 0 0 735.74775,708.31157 162.07971,162.07971 0 0 0 897.82746,546.23185 162.07971,162.07971 0 0 0 735.74775,384.15214 Z m 0,54.02657 A 108.05408,108.05408 0 0 1 843.8009,546.23185 108.05408,108.05408 0 0 1 735.74775,654.28499 108.05408,108.05408 0 0 1 627.69461,546.23185 108.05408,108.05408 0 0 1 735.74775,438.17871 Z"
           style="opacity:1;fill:#000000;fill-opacity:1;stroke:none;stroke-width:324.16;stroke-linecap:round;stroke-linejoin:round;stroke-miterlimit:4;stroke-dasharray:none;stroke-dashoffset:0;stroke-opacity:0.441624"
           inkscape:label="eye_right" />
        <rect
           style="opacity:1;fill:#000000;fill-opacity:1;stroke:none;stroke-width:324.16;stroke-linecap:round;stroke-linejoin:round;stroke-miterlimit:4;stroke-dasharray:none;stroke-dashoffset:0;stroke-opacity:0.441624"
           id="rect4160"
           width="216.10628"
           height="54.026569"
           x="411.58832"
           y="492.20432"
           ry="0"
           inkscape:label="nose_piece" />
      </g>
    </g>
  </g>
</svg>
